<svg xmlns="http://www.w3.org/2000/svg" viewBox="0 0 512 512">
  <rect width="512" height="512" rx="64" fill="#000"/>
  <g fill="#fff" transform="translate(56 147.176) scale(5.88235294)">
    <path d="M49.5,37A18.42,18.42,0,0,0,68,18.65c-1-24.33-36-24.32-37,0A18.42,18.42,0,0,0,49.5,37Z"/>
    <path fill-rule="evenodd" d="M4.46,18.51C6.48,23.43,6.34,29,6.21,34.2c-.15,1.42-1.65,2-2.15.42-.3.54-.09-16.89-.15-17.14A7.81,7.81,0,0,1,4.46,18.51ZM10.24,7.87c.1-2-.16-5,1.54-6.43.59.32.61,1.24.69,1.85a9,9,0,0,1-2.23,6.53ZM27.1,21c-1.18.1-.5,1.71-1,2.46-1.42,3.06-4.49,1.14-4.18-1.75.08-1.28-.22-4.64.26-5.82A2,2,0,0,1,25.51,15a.72.72,0,0,0,1,0c.65-.74-.4-1.41-1-1.68-2.38-1.1-4.88,1.08-4.94,3.51-.19,1.7.24,5.09-.28,6.7a2,2,0,0,1-3.94,0c-.49-1.09-.14-8.49-.24-9.77a.72.72,0,0,0-1.44,0c-.1,1.33.26,8.64-.24,9.77a2,2,0,0,1-3.93,0c-.5-1-.15-10.49-.25-11.72a10.1,10.1,0,0,0,3.68-8.09c0-1.21-.21-2.67-1.28-3.41a1.85,1.85,0,0,0-2.5.75C8.32,3.89,8.92,7.79,8.81,11a11.85,11.85,0,0,1-4.9,1.73V5.42A5.88,5.88,0,0,1,5.33,1.21a.71.71,0,0,0,0-1c-1.12-.83-2,1.5-2.38,2.32-.77,1.87-.32,8.35-.43,10.41-.79.21-2.35-.38-2.48.78a.69.69,0,0,0,.42.64A7.8,7.8,0,0,1,2.48,15.7V33.27a4.14,4.14,0,0,0,.85,2.92,2.37,2.37,0,0,0,3.87-.51c.91-1.9.4-4.12.5-6.16C7.49,24.59,7.37,19,3.91,15.11v-.9a14,14,0,0,0,4.9-1.51c.12,1.72-.33,9.82.33,11.28a3.46,3.46,0,0,0,6.24.78,3.43,3.43,0,0,0,5.86,0c1.86,3,6.12,1.63,6.49-1.7C27.79,22.37,28.13,21.08,27.1,21Z"/>
    <path fill-rule="evenodd" d="M15.38,10.68a.74.74,0,0,0,0-1.47A.74.74,0,0,0,15.38,10.68Z"/>
  </g>
</svg>
